<svg width="564" height="565" viewBox="0 0 564 565" fill="none" xmlns="http://www.w3.org/2000/svg">
<circle cx="282" cy="282" r="282" fill="#038BBB"/>
<path d="M489.959 204.303C501.462 212.408 500.5 293.073 500.5 278.5C500.5 281.208 500.182 283.877 499.574 286.5C499.524 286.851 499.45 287.15 499.354 287.4C490.663 321.138 434.414 347.098 395.5 352C366.2 380.701 376.983 470.042 383.193 507.219C403.45 541.861 399 538 399 538C247 607.5 127 518 118 510.5C157.264 431.359 133.019 378.129 125.351 323.937C79.3383 204.305 135.32 137.076 169.062 118.415C228.143 85.8778 309.149 102.101 353.111 123.795C382.252 133.8 379.952 151.402 383.786 160.604C396.056 164.439 395.289 175.943 392.222 181.31C409.86 187.005 456.217 180.53 489.959 204.303Z" fill="#E19F41"/>
<path d="M316.646 359.813C295.941 351.609 277.536 346.009 266.8 334.506M316.646 359.813C293.579 401.174 345.859 443.374 383.193 507.219M316.646 359.813C327.871 364.26 358.323 356.683 395.5 352M392.222 181.31C409.86 187.005 456.217 180.53 489.959 204.303C501.462 212.408 500.5 293.073 500.5 278.5C500.5 281.208 500.182 283.877 499.574 286.5M392.222 181.31C395.289 175.943 396.056 164.439 383.786 160.604M392.222 181.31C388.898 179.521 383.786 183.598 379.952 172.095C378.121 166.603 381.23 163.416 383.786 160.604M383.786 160.604C379.952 151.402 382.252 133.8 353.111 123.795M169.062 118.415C135.32 137.076 79.3383 204.305 125.351 323.937M169.062 118.415C238.081 98.4765 182.866 473.477 125.351 323.937M169.062 118.415C228.143 85.8778 309.149 102.101 353.111 123.795M125.351 323.937C133.019 378.129 157.264 431.359 118 510.5C127 518 247 607.5 399 538C399 538 403.45 541.861 383.193 507.219M383.193 507.219C376.983 470.042 366.2 380.701 395.5 352M395.5 352C434.759 347.054 491.662 320.675 499.574 286.5M353.111 123.795C373.817 137.634 358.479 169.027 379.952 188.199C417.528 192.033 463.783 194.977 462.007 204.303M486 231C492 239.5 492.5 268 489.959 281.5M489.959 281.5C464.459 298.333 394.4 326 344 296M489.959 281.5C492.854 285.333 498.829 291.7 499.574 286.5M323.97 178.231C322.436 165.206 299.43 157.524 296.363 178.231C296.363 190.512 323.97 194.347 323.97 178.231Z" stroke="#6B5432"/>
<path d="M486 231C491 231 496.5 215 491 205C486 197.5 461 199.5 461 209.5C462.5 220 478 231 486 231Z" fill="#292929" stroke="#292929"/>
<path d="M486 231C492 239.5 492.5 268 489.959 281.5M489.959 281.5C464.459 298.333 394.4 326 344 296M489.959 281.5C492.853 285.333 498.829 291.7 499.574 286.5" stroke="#6B5432" stroke-width="3"/>
<path d="M316.646 359.813C293.579 401.174 345.859 443.374 383.193 507.219C376.982 470.042 366.2 380.701 395.5 352C358.322 356.683 327.87 364.26 316.646 359.813Z" fill="#D3D3D3" stroke="#6B5432"/>
<path d="M383.786 160.605C396.056 164.439 395.289 175.943 392.221 181.311C388.898 179.521 383.786 183.598 379.951 172.095C378.121 166.604 381.23 163.417 383.786 160.605Z" fill="black" stroke="black"/>
<path d="M323.97 178.231C322.436 165.206 299.43 157.524 296.362 178.231C296.362 190.512 323.97 194.347 323.97 178.231Z" fill="black" stroke="black"/>
<path d="M203.111 122.479C155.822 133.542 68.001 192.456 95.0304 339.61C128.817 523.552 295.133 120.239 203.111 122.479Z" fill="#6B5432" stroke="#6B5432"/>
<circle cx="430" cy="290" r="3" fill="#6B5432"/>
<circle cx="458" cy="279" r="3" fill="#6B5432"/>
<circle cx="468" cy="258" r="3" fill="#6B5432"/>
<path d="M387 131.765C360.6 151.936 158.742 149.515 123 131.765L141.277 121.008C177.154 1.32944 334.877 8.72416 359.246 121.008L387 131.765Z" fill="#D9D9D9"/>
<path d="M141.277 121.008L123 131.765C158.742 149.515 360.6 151.936 387 131.765L359.246 121.008M141.277 121.008C177.154 1.32944 334.877 8.72416 359.246 121.008M141.277 121.008C172.415 131.765 337.043 133.919 359.246 121.008" stroke="#292929"/>
<path d="M343.5 56.0001H341.465C332.667 57.4394 329.81 77.7866 329.5 88.5001C328.5 63 308.5 56.0001 310.5 56.0001H341.465C342.111 55.8944 342.789 55.8907 343.5 56.0001Z" fill="#D9D9D9" stroke="#292929"/>
<path d="M357 86.5C357 95.0878 355.396 102.814 352.845 108.356C350.254 113.983 346.877 117 343.5 117C340.123 117 336.746 113.983 334.155 108.356C331.604 102.814 330 95.0878 330 86.5C330 77.9122 331.604 70.1861 334.155 64.6443C336.746 59.0166 340.123 56 343.5 56C346.877 56 350.254 59.0166 352.845 64.6443C355.396 70.1861 357 77.9122 357 86.5Z" fill="#D9D9D9" stroke="black" stroke-width="2"/>
</svg>
