<svg width="285" height="217" viewBox="0 0 285 217" fill="none" xmlns="http://www.w3.org/2000/svg">
<path d="M162.222 149.62C162.222 149.903 162.043 150.291 161.291 150.796C160.559 151.289 159.511 151.737 158.282 152.191C157.807 152.367 157.29 152.548 156.766 152.732C156.006 152.999 155.228 153.271 154.535 153.542C153.35 154.003 152.169 154.543 151.352 155.239C150.316 156.121 149.621 157.058 149.064 157.933C148.85 158.27 148.65 158.607 148.465 158.919C148.414 159.005 148.364 159.089 148.316 159.17C148.084 159.559 147.871 159.904 147.645 160.219C147.202 160.835 146.726 161.308 146.042 161.643C145.345 161.984 144.352 162.222 142.819 162.222C141.285 162.222 140.322 161.983 139.667 161.65C139.029 161.324 138.6 160.866 138.199 160.255C137.994 159.941 137.802 159.597 137.59 159.205C137.561 159.152 137.531 159.097 137.501 159.041C137.318 158.702 137.118 158.332 136.895 157.958C136.368 157.073 135.692 156.127 134.648 155.239C133.826 154.539 132.616 153.999 131.4 153.538C130.67 153.262 129.855 152.986 129.057 152.715C128.53 152.536 128.01 152.36 127.527 152.187C126.252 151.733 125.156 151.283 124.389 150.786C123.594 150.272 123.417 149.883 123.417 149.62C123.417 147.965 123.912 146.73 124.767 145.769C125.642 144.786 126.957 144.019 128.706 143.443C132.228 142.283 137.179 142 142.819 142C148.46 142 153.411 142.283 156.933 143.443C158.682 144.019 159.997 144.786 160.872 145.769C161.727 146.73 162.222 147.965 162.222 149.62Z" fill="white" stroke="white" stroke-width="2"/>
<path d="M69.0465 62.6991C66.9103 69.468 61.4864 83.8811 53.4829 96.5795C49.4813 102.929 44.8615 108.806 39.7215 113.086C34.5836 117.365 28.9866 120 23.0001 120C20.1104 120 17.7884 119.009 15.8928 117.248C13.9744 115.467 12.4559 112.861 11.2878 109.598C8.94764 103.059 8.10888 94.1546 8.0577 84.82C8.00664 75.5075 8.73847 65.8653 9.48587 57.897C9.72948 55.2998 9.97389 52.889 10.1934 50.7233C10.311 49.5637 10.4214 48.4743 10.5208 47.4643C10.8031 44.5954 10.9997 42.3347 10.9997 41C10.9996 36.0833 13.0291 26.3879 18.162 17.944C23.2761 9.53096 31.3728 2.5 43.5 2.5C54.0547 2.5 61.5886 3.96275 66.7977 6.65406C71.9557 9.31894 74.883 13.2115 76.2178 18.2558C77.5675 23.3563 77.3 29.6837 75.9119 37.1772C74.5259 44.6591 72.0434 53.2025 69.0465 62.6991Z" fill="white" stroke="white" stroke-width="2"/>
<path d="M220.056 62.6991C222.192 69.468 227.616 83.8811 235.62 96.5795C239.621 102.929 244.241 108.806 249.381 113.086C254.519 117.365 260.116 120 266.102 120C268.992 120 271.314 119.009 273.21 117.248C275.128 115.467 276.647 112.861 277.815 109.598C280.155 103.059 280.994 94.1546 281.045 84.82C281.096 75.5075 280.364 65.8653 279.617 57.897C279.373 55.2998 279.129 52.889 278.909 50.7233C278.792 49.5637 278.681 48.4743 278.582 47.4643C278.299 44.5954 278.103 42.3347 278.103 41C278.103 36.0833 276.073 26.3879 270.941 17.944C265.826 9.53096 257.73 2.5 245.603 2.5C235.048 2.5 227.514 3.96275 222.305 6.65406C217.147 9.31894 214.22 13.2115 212.885 18.2558C211.535 23.3563 211.802 29.6837 213.191 37.1772C214.577 44.6591 217.059 53.2025 220.056 62.6991Z" fill="white" stroke="white" stroke-width="2"/>
<path d="M85.5 84.5C93 78.1666 111.6 67.8 126 77M166.5 77C173.667 73.8333 191.1 72.2 203.5 91" stroke="white"/>
<path d="M144.5 216.5C126.5 216.5 105 191.5 86 161C99.4828 178.521 115.662 193.065 144.5 193.5C165 193.5 181.5 192.5 198.5 161C182 195.5 167.5 216.5 144.5 216.5Z" stroke="white"/>
</svg>
