<svg width="180" height="162" viewBox="0 0 180 162" fill="none" xmlns="http://www.w3.org/2000/svg">
<path d="M161.91 134.948C142.855 188.944 102.819 143.098 92.6315 147.173C82.4433 142.079 53.9171 185.517 27.4284 134.948C16.2217 113.553 53.9171 102.346 60.0297 98.2708C64.6142 95.2144 70.2184 70.7632 92.6315 70.7632C115.045 70.7632 119.12 96.2332 126.252 98.2708C129.308 104.384 170.539 110.496 161.91 134.948Z" fill="white"/>
<ellipse cx="25.3604" cy="61.5944" rx="18.3384" ry="29.5452" transform="rotate(-15 25.3604 61.5944)" fill="white"/>
<ellipse cx="68.1488" cy="33.0693" rx="18.3384" ry="29.5452" transform="rotate(-5 68.1488 33.0693)" fill="white"/>
<ellipse cx="117.051" cy="31.0311" rx="18.3384" ry="29.5452" transform="rotate(5 117.051 31.0311)" fill="white"/>
<ellipse cx="154.639" cy="61.5958" rx="18.3384" ry="29.5452" transform="rotate(15 154.639 61.5958)" fill="white"/>
<path d="M67.7052 102.502C75.9203 87.7185 93.4599 94.4943 93.4599 102.502C93.4599 94.4943 111 87.2067 119.215 101.99C128.799 119.236 100.047 141.922 93.4599 141.922C86.8724 141.922 58.1214 119.748 67.7052 102.502Z" fill="#B90B00" stroke="#B90B00"/>
</svg>
