<svg width="100" height="75" viewBox="0 0 100 75" fill="none" xmlns="http://www.w3.org/2000/svg">
<path d="M56.0807 34.9942C56.4853 53.1208 39.4892 44.0246 36.9279 46.3723C33.3391 46.0043 29.7552 62.0641 16.2429 50.052C10.5261 44.97 20.4372 37.43 21.7914 35.5385C22.8071 34.1199 21.7279 26.2503 28.3674 23.7408C35.0069 21.2312 39.0677 28.3187 41.4086 28.1237C42.9988 29.592 55.8975 26.7859 56.0807 34.9942Z" fill="#03223F"/>
<path d="M12.1282 25.1706C15.145 29.3658 15.4794 34.2839 12.8751 36.1556C10.2708 38.0273 5.71397 36.1437 2.69715 31.9485C-0.319675 27.7534 -0.654084 22.8352 1.95023 20.9635C4.55453 19.0918 9.11136 20.9754 12.1282 25.1706Z" fill="#03223F"/>
<path d="M22.1257 12.8005C24.3681 17.4556 23.8432 22.3571 20.9533 23.7482C18.0635 25.1393 13.903 22.4932 11.6606 17.8381C9.41827 13.1829 9.94318 8.28149 12.833 6.89039C15.7229 5.49928 19.8834 8.14531 22.1257 12.8005Z" fill="#03223F"/>
<path d="M36.7426 7.66743C38.1424 12.6411 36.7741 17.3769 33.6865 18.2451C30.599 19.1134 26.9612 15.7853 25.5615 10.8116C24.1617 5.83794 25.5299 1.10213 28.6175 0.23389C31.7051 -0.634352 35.3428 2.69376 36.7426 7.66743Z" fill="#03223F"/>
<path d="M51.4893 13.5048C52.004 18.6459 49.834 23.0721 46.6426 23.3911C43.4511 23.7101 40.4467 19.801 39.932 14.66C39.4173 9.51887 41.5872 5.09261 44.7787 4.77362C47.9701 4.45464 50.9746 8.36372 51.4893 13.5048Z" fill="#03223F"/>
<path d="M83.5071 69.8575C70.654 82.6499 65.5238 64.0729 62.0566 63.8375C59.8485 60.9856 45.7424 69.4652 45.1269 51.3997C44.8665 43.7566 57.1635 45.7325 59.4676 45.4087C61.1957 45.1657 66.1528 38.9578 72.5493 42.0341C78.9459 45.1103 76.6115 52.9375 78.367 54.4978C78.3999 56.6615 89.3273 64.0648 83.5071 69.8575Z" fill="#038BBB"/>
<path d="M60.3148 31.2619C59.3558 36.3389 56.0234 39.9725 52.8716 39.3778C49.7199 38.7831 47.9423 34.1852 48.9014 29.1082C49.8604 24.0311 53.1928 20.3975 56.3445 20.9922C59.4963 21.5869 61.2738 26.1848 60.3148 31.2619Z" fill="#038BBB"/>
<path d="M76.17 29.9702C74.3438 34.8037 70.4309 37.8036 67.4304 36.6707C64.4298 35.5378 63.4778 30.7011 65.3041 25.8677C67.1303 21.0342 71.0432 18.0343 74.0437 19.1672C77.0443 20.3001 77.9963 25.1368 76.17 29.9702Z" fill="#038BBB"/>
<path d="M89.968 37.0135C87.33 41.4566 82.9555 43.7316 80.1973 42.095C77.4391 40.4584 77.3417 35.5299 79.9797 31.0868C82.6177 26.6438 86.9921 24.3687 89.7503 26.0053C92.5085 27.642 92.6059 32.5705 89.968 37.0135Z" fill="#038BBB"/>
<path d="M95.9083 51.7158C92.5387 55.6334 87.8356 57.1145 85.4036 55.0239C82.9716 52.9332 83.7317 48.0626 87.1013 44.145C90.4709 40.2274 95.174 38.7463 97.606 40.8369C100.038 42.9275 99.2779 47.7981 95.9083 51.7158Z" fill="#038BBB"/>
</svg>
