<svg width="131" height="130" viewBox="0 0 131 130" fill="none" xmlns="http://www.w3.org/2000/svg">
<path d="M82.1145 52.9233C83.9389 76.0419 61.5831 65.6549 58.4823 68.8382C53.8738 68.6277 50.4568 89.3954 32.3385 75.0329C24.673 68.9564 36.7829 58.6111 38.3754 56.0977C39.5698 54.2127 37.6241 44.2412 45.92 40.5563C54.2159 36.8714 59.9118 45.6287 62.8864 45.2104C65.0227 46.9704 81.2884 42.4545 82.1145 52.9233Z" fill="#038BBB"/>
<ellipse cx="19.5131" cy="48.2223" rx="7.42712" ry="11.9659" transform="rotate(-38.9499 19.5131 48.2223)" fill="#038BBB"/>
<ellipse cx="30.6602" cy="30.629" rx="7.42712" ry="11.9659" transform="rotate(-28.9499 30.6602 30.629)" fill="#038BBB"/>
<ellipse cx="48.426" cy="21.8352" rx="7.42712" ry="11.9659" transform="rotate(-18.9499 48.426 21.8352)" fill="#038BBB"/>
<ellipse cx="67.3633" cy="26.968" rx="7.42712" ry="11.9659" transform="rotate(-8.94993 67.3633 26.968)" fill="#038BBB"/>
<path d="M91.6713 116.229C72.2762 128.942 70.6374 104.346 66.3554 103.157C64.3245 99.0148 44.4712 106.002 48.3555 83.2101C49.9989 73.5674 64.8919 79.213 67.8614 79.4012C70.0884 79.5424 77.8969 73.0428 85.1161 78.5458C92.3352 84.0488 87.3944 93.2532 89.1912 95.6605C88.6747 98.3798 100.454 110.472 91.6713 116.229Z" fill="#E19F41"/>
<ellipse cx="65.7009" cy="59.076" rx="7.42712" ry="11.9659" transform="rotate(22.3176 65.7009 59.076)" fill="#E19F41"/>
<ellipse cx="86.486" cy="60.3931" rx="7.42712" ry="11.9659" transform="rotate(32.3176 86.486 60.3931)" fill="#E19F41"/>
<ellipse cx="102.738" cy="71.7436" rx="7.42712" ry="11.9659" transform="rotate(42.3176 102.738 71.7436)" fill="#E19F41"/>
<ellipse cx="107.34" cy="90.817" rx="7.42712" ry="11.9659" transform="rotate(52.3176 107.34 90.817)" fill="#E19F41"/>
</svg>
